<svg xmlns="http://www.w3.org/2000/svg" viewBox="0 0 792 375"><path fill="#B8D4D3" d="M246.062 118.591h-26.13l-4.283 9.505h-10.209l22.417-50.404h10.281l22.417 50.404h-10.28l-4.213-9.505zm-13.064-30.315l-9.281 21.458h18.562l-9.281-21.458zM311.382 128.096h-7.996l-6.211-15.842-5.283-15.913-5.211 16.058-6.069 15.697h-7.996l-18.349-50.404h10.567l11.78 36.363 12.137-36.363h6.139l12.494 36.363 11.423-36.363h10.566l-17.991 50.404zM372.416 128.096h-37.409v-50.404h37.409v9.217h-28.058v11.593h27.059v8.856h-27.059v11.378h28.058v9.36zM412.034 89.86c-1.714-2.88-6.426-5.616-11.851-5.616-6.997 0-10.353 2.952-10.353 6.696 0 4.393 5.14 5.616 11.137 6.337 10.425 1.296 20.134 4.032 20.134 16.057 0 11.233-9.854 16.058-20.989 16.058-10.209 0-18.062-3.168-21.775-12.385l7.854-4.104c2.212 5.545 7.995 7.993 14.064 7.993 5.926 0 11.494-2.089 11.494-7.562 0-4.752-4.926-6.696-11.565-7.416-10.209-1.225-19.634-3.961-19.634-15.266 0-10.369 10.139-14.617 19.347-14.689 7.783 0 15.851 2.232 19.635 10.009l-7.498 3.888zM477.495 103.182c-.142 13.033-8.065 26.066-25.629 26.066-17.562 0-25.702-12.745-25.702-25.994s8.425-26.57 25.702-26.57c17.205 0 25.772 13.321 25.629 26.498zm-42.049.215c.214 8.281 4.64 17.138 16.42 17.138s16.207-8.929 16.35-17.21c.143-8.496-4.569-18.001-16.35-18.001s-16.635 9.576-16.42 18.073zM527.966 91.589l-16.278 21.89h-1.856l-15.92-21.962v36.651h-9.424v-50.404h10.852l15.635 21.674 15.635-21.674h10.781v50.404h-9.424v-36.579zM583.504 128.096h-37.411v-50.404h37.411v9.217h-28.058v11.593h27.058v8.856h-27.058v11.378h28.058v9.36z"/><path fill="#B8D4D3" d="M271.73 213.029c7.654 1.706 14.604 3.732 20.848 6.078 6.244 2.347 11.614 5.263 16.114 8.746 4.498 3.485 7.957 7.715 10.374 12.689 2.417 4.979 3.625 10.951 3.625 17.917v.214c0 2.559-.201 5.191-.604 7.891-.403 2.703-.941 5.119-1.611 7.252l-9.266-2.133c-2.553 8.392-7.654 14.896-15.309 19.516-7.654 4.623-17.191 6.932-28.603 6.932h-.604v8.105c-12.759-.287-24.575-2.486-35.452-6.611-10.877-4.123-20.345-10.096-28.402-17.916l11.079-15.145c7.251 6.686 15.274 11.768 24.071 15.25 8.793 3.486 18.028 5.369 27.696 5.652h1.612c8.863 0 16.215-1.775 22.056-5.332 5.842-3.553 9.499-8.744 10.978-15.57l9.266 2.133c.67-3.125 1.007-6.111 1.007-8.957v-.428c0-5.258-.976-9.774-2.92-13.543-1.948-3.766-4.734-7.002-8.359-9.705-3.626-2.699-8.057-5.012-13.294-6.932s-11.148-3.66-17.726-5.226c-5.373-1.28-10.005-2.522-13.898-3.733-3.896-1.206-7.085-2.666-9.568-4.371-2.487-1.707-4.331-3.733-5.54-6.08-1.208-2.346-1.813-5.152-1.813-8.424v-.428c0-2.559.403-4.904 1.208-7.038l-14.906-6.612c-2.285 4.552-3.424 9.742-3.424 15.57v.214c0 5.405.907 9.991 2.719 13.757 1.813 3.77 4.498 7.006 8.058 9.705 3.556 2.703 7.988 5.012 13.294 6.932 5.303 1.92 11.513 3.732 18.632 5.439 6.446 1.565 11.648 3.129 15.611 4.691 3.959 1.566 7.05 3.273 9.266 5.119 2.216 1.85 3.692 3.807 4.431 5.865.737 2.062 1.108 4.303 1.108 6.719v1.707c0 .996-.135 2.062-.403 3.199-1.076 4.979-3.862 8.818-8.359 11.518-4.5 2.702-10.308 4.053-17.423 4.053-.271 0-.74.036-1.41.105-.674.074-1.143.107-1.41.107v-10.878h2.82c8.728 0 13.426-2.486 14.1-7.466v-1.279c0-1.279-.271-2.416-.806-3.412-.539-.994-1.58-1.953-3.123-2.88-1.545-.923-3.761-1.883-6.647-2.88-2.889-.992-6.616-2.059-11.18-3.199-6.716-1.705-13.193-3.589-19.438-5.652-6.244-2.059-11.717-4.799-16.417-8.211-4.702-3.412-8.46-7.678-11.28-12.797-2.82-5.119-4.23-11.518-4.23-19.196v-.427c0-8.389 1.812-15.923 5.438-22.608 4.296-7.679 10.575-13.614 18.833-17.81 8.259-4.192 17.827-6.292 28.704-6.292 11.412 0 21.855 1.637 31.322 4.906 9.467 3.272 17.958 8.249 25.481 14.93l-14.1 22.822c-6.446-4.832-13.294-8.639-20.546-11.41-7.251-2.773-14.503-4.16-21.754-4.16-4.567 0-8.529.713-11.884 2.133-3.358 1.423-5.911 3.556-7.655 6.399l8.058 3.626c-.403 1.14-.604 2.062-.604 2.772v1.493c0 1.279.268 2.453.806 3.52.535 1.066 1.611 2.062 3.223 2.986 1.611.926 3.858 1.886 6.748 2.879 2.888.997 6.68 2.064 11.382 3.2zm-4.431 82.543c10.877 0 19.907-2.133 27.092-6.398 7.182-4.266 11.985-10.309 14.402-18.13l-6.849-1.493c-1.882 6.542-5.842 11.591-11.885 15.144-6.043 3.556-13.631 5.332-22.761 5.332-.806 0-1.41-.069-1.813-.213-9.669-.14-18.802-1.847-27.395-5.119-8.595-3.27-16.517-8.104-23.769-14.503l-8.258 11.09c7.654 6.969 16.448 12.371 26.387 16.211 9.936 3.839 20.612 5.902 32.027 6.186v-7.8919999999999995c.132 0 .302-.033.503-.106.202-.069.435-.106.705-.106h1.614zm-27.394-104.085c1.879-3.27 4.699-5.759 8.46-7.465 3.758-1.707 8.189-2.56 13.294-2.56 7.251 0 14.368 1.247 21.352 3.732 6.981 2.49 13.697 6.153 20.143 10.985l11.683-18.77c-14.235-11.944-32.096-17.917-53.58-17.917-10.475 0-19.674 1.993-27.596 5.972-7.925 3.982-13.833 9.598-17.726 16.85-3.494 6.116-5.237 13.224-5.237 21.329v.427c0 7.251 1.309 13.261 3.928 18.022 2.619 4.766 6.175 8.745 10.676 11.944 4.498 3.2 9.735 5.796 15.712 7.785 5.974 1.993 12.388 3.839 19.236 5.546 4.432 1.14 8.158 2.206 11.179 3.199 3.021.996 5.439 2.1 7.251 3.306 1.813 1.21 3.123 2.489 3.928 3.839.806 1.354 1.208 2.88 1.208 4.586v.427c0 .569-.069.997-.202 1.28-.271 2.985-1.847 5.332-4.733 7.038-2.889 1.706-6.748 2.56-11.582 2.56h-.604v5.545h.604c6.446 0 11.714-1.173 15.812-3.52 4.095-2.346 6.613-5.651 7.554-9.918.268-.709.403-1.386.403-2.025v-2.453c0-2.559-.472-4.762-1.41-6.611-.941-1.847-2.518-3.553-4.733-5.119-2.216-1.563-5.137-3.02-8.762-4.373-3.626-1.35-8.126-2.666-13.496-3.945-6.178-1.42-11.985-3.02-17.423-4.799-5.439-1.777-10.172-4.086-14.201-6.932-4.028-2.844-7.22-6.363-9.568-10.559-2.351-4.192-3.525-9.491-3.525-15.89v-.214c0-2.986.368-6.005 1.108-9.064.736-3.057 1.712-5.792 2.921-8.211.132-.283.267-.533.403-.747.132-.213.268-.46.403-.747l1.007.427 16.113 7.04zm80.37 66.973c0-6.538-1.177-12.157-3.525-16.851-2.351-4.691-5.674-8.707-9.971-12.051-4.299-3.339-9.467-6.111-15.51-8.318-6.043-2.202-12.76-4.158-20.143-5.865-8.863-2.133-15.076-4.191-18.632-6.186-3.56-1.988-5.338-4.905-5.338-8.744v-.427c0-1.136.066-1.919.201-2.347l-6.446-2.985c-.806 1.993-1.208 4.052-1.208 6.185v.428c0 2.559.469 4.835 1.41 6.824.938 1.994 2.518 3.732 4.733 5.227 2.216 1.492 5.203 2.916 8.964 4.266 3.758 1.353 8.46 2.666 14.1 3.945 6.849 1.566 12.958 3.343 18.33 5.332 5.369 1.993 9.971 4.446 13.798 7.359 3.827 2.916 6.748 6.398 8.762 10.451s3.021 8.924 3.021 14.609v.428c0 1.705-.069 3.342-.201 4.904-.136 1.566-.403 3.13-.806 4.693l7.05 1.492c.403-1.846.736-3.766 1.007-5.758.268-1.99.403-4.123.403-6.398v-.213zM403.385 307.597h-34.243l15.309-40.099-2.417-5.972-12.489 33.272h-.806c-.403 0-.739-.213-1.007-.639-.271-.428-.941-2.061-2.015-4.906l-41.495-109.417h26.992l-8.258-21.542h85.607l-4.229 10.877h24.373l-26.992 70.812h7.252l-25.582 67.614zm-75.738-125.201c.806 2.133 2.248 5.903 4.331 11.304 2.08 5.405 4.463 11.661 7.151 18.77 2.685 7.112 5.539 14.647 8.561 22.608 3.021 7.965 5.908 15.57 8.662 22.822 2.75 7.252 5.237 13.758 7.453 19.516 2.216 5.76 3.859 9.992 4.935 12.691l12.086-31.994-28.805-75.717h-24.374zm25.985-2.56h9.668l.403.854 23.165 61.427 27.797-72.945h7.251l3.021-8.318h-78.356l7.051 18.982zm1.007 2.56l27.395 72.518 3.626-9.598-23.97-62.92h-7.051zm17.927 122.641h29.208l23.769-62.494h-4.834l-22.963 60.361-12.086-31.993-13.094 34.126zm10.877-46.924l2.216 6.186 3.625-9.598-2.417-5.973-3.424 9.385zm3.425 9.385l10.877 28.581 20.344-53.536h-9.467l-12.086 31.567-6.043-15.997-3.625 9.385zm1.41-22.182l2.215 6.186 30.416-79.771h-4.633l-27.998 73.585zm3.424 9.385l4.834 12.584 10.475-27.301h12.086l25.984-68.253h-21.553l-31.826 82.97zM583.876 225.613v58.229l-.402.426c-2.955 2.56-6.38 5.119-10.273 7.679-3.896 2.56-8.293 4.905-13.193 7.038-4.903 2.133-10.272 3.876-16.114 5.227-5.842 1.353-12.187 2.025-19.035 2.025h-2.015v-8.531c-8.97-.283-17.2-2.096-24.697-5.439-7.497-3.339-13.986-7.854-19.476-13.543-5.489-5.686-9.804-12.404-12.948-20.156-3.147-7.748-4.787-16.174-4.919-25.275h-9.669v-1.705c0-10.665 1.845-20.547 5.539-29.648 3.692-9.098 8.794-16.989 15.309-23.674 6.513-6.682 14.201-11.908 23.064-15.677 8.862-3.766 18.531-5.652 29.006-5.652h1.208v8.745c9.669.143 18.33 1.743 25.985 4.799 7.654 3.06 15.037 7.785 22.157 14.184l.806.854-6.849 8.958-.806-.853c-6.313-5.686-12.76-9.845-19.338-12.478-6.581-2.629-13.898-4.016-21.956-4.159v13.011h-1.007c-5.237 0-10.172 1.066-14.805 3.199s-8.631 5.086-11.985 8.852c-3.358 3.77-6.012 8.211-7.957 13.33-1.948 5.119-2.92 10.595-2.92 16.424v1.706l-16.518-.214v-1.705c0-7.818 1.31-15.178 3.928-22.076 2.619-6.895 6.411-13.044 11.381-18.449 4.967-5.259 10.642-9.278 17.021-12.051 6.377-2.773 13.194-4.299 20.445-4.586v-6.185c-8.432.143-16.262 1.85-23.488 5.119-7.227 3.273-13.518 7.679-18.872 13.224-5.354 5.545-9.536 12.087-12.545 19.623-3.012 7.538-4.586 15.714-4.718 24.528h4.633v1.279c0 8.248 1.369 15.927 4.113 23.035 2.741 7.112 6.553 13.261 11.438 18.449 4.885 5.193 10.67 9.352 17.361 12.479 6.691 3.129 14.05 4.835 22.078 5.119v-17.064c.403.145.872.214 1.41.214h1.812c9.267 0 17.122-2.133 23.567-6.398l-1.812-1.066c-5.911 3.839-13.093 5.759-21.553 5.759h-2.417c-5.105-.283-9.805-1.493-14.101-3.626-4.299-2.133-7.991-4.976-11.079-8.532-3.09-3.553-5.473-7.748-7.15-12.584-1.681-4.832-2.518-10.023-2.518-15.57v-.426c0-5.546.906-10.771 2.719-15.677 1.813-4.905 4.297-9.135 7.453-12.69 3.153-3.553 6.88-6.362 11.18-8.426 4.296-2.059 8.929-3.092 13.898-3.092l1.209-.214v33.913h4.028v-7.252h45.523v7.252h8.864zm-123.073 5.119c.132-9.098 1.771-17.597 4.919-25.488 3.145-7.892 7.459-14.75 12.948-20.583 5.489-5.829 12.014-10.415 19.576-13.757 7.563-3.339 15.763-5.083 24.597-5.226v-6.186c-9.907.144-19.041 2.063-27.407 5.759-8.365 3.699-15.629 8.711-21.785 15.037-6.156 6.329-11.013 13.793-14.566 22.395-3.557 8.604-5.4 17.953-5.533 28.048h7.251zm62.04 62.707c-8.328-.283-15.947-1.99-22.862-5.119-6.918-3.126-12.926-7.358-18.027-12.691-5.105-5.332-9.134-11.587-12.086-18.769-2.956-7.179-4.501-15.037-4.633-23.569h-2.015c.132 8.818 1.706 16.924 4.718 24.315 3.009 7.396 7.157 13.831 12.444 19.303 5.288 5.476 11.545 9.784 18.771 12.931 7.226 3.146 15.123 4.846 23.689 5.092v-1.493zm0-116.456c-7.062.144-13.621 1.6-19.684 4.373-6.062 2.772-11.32 6.579-15.783 11.411-4.463 4.836-7.963 10.487-10.494 16.956-2.53 6.473-3.861 13.475-3.993 21.01l11.481.213c.132-5.972 1.208-11.551 3.223-16.743 2.015-5.188 4.733-9.737 8.158-13.65 3.424-3.909 7.452-7.002 12.086-9.278 4.633-2.272 9.634-3.552 15.006-3.839v-10.453zm27.999 88.728v-19.622l-21.352-.213v-17.703h-6.446v-33.7c-4.431.144-8.595 1.21-12.488 3.199-3.896 1.994-7.251 4.66-10.071 7.999-2.82 3.343-5.036 7.252-6.647 11.731-1.611 4.479-2.417 9.277-2.417 14.396v.426c0 5.263.806 10.132 2.417 14.611 1.611 4.479 3.858 8.391 6.748 11.73 2.886 3.343 6.311 6.009 10.272 7.998 3.96 1.993 8.359 3.13 13.194 3.413h2.216c8.592 0 15.51-1.847 20.747-5.546l.604-.426 3.223 1.707zm-25.582-91.287c8.058.144 15.441 1.53 22.157 4.159 6.714 2.633 13.295 6.719 19.74 12.265l3.827-4.906c-6.849-5.972-13.898-10.378-21.149-13.224-7.252-2.843-15.444-4.336-24.575-4.479v6.185zm0 120.722c5.505 0 10.642-.53 15.41-1.593 4.765-1.063 9.13-2.41 13.093-4.039 3.959-1.63 7.519-3.473 10.676-5.529 3.153-2.053 5.873-4.076 8.158-6.062v-49.749h-40.689v15.356h21.352v23.249l18.33 9.384c-.271.287-.472.464-.604.533-.135.074-.271.181-.402.32l-.403.427c-2.149 1.827-4.702 3.687-7.654 5.579-2.955 1.893-6.313 3.612-10.071 5.155-3.761 1.546-7.891 2.81-12.388 3.79-4.501.982-9.436 1.473-14.806 1.473v1.706zm56.199-66.973h-6.445v51.189l-.403.427c-2.417 1.992-5.237 4.053-8.46 6.186s-6.918 4.052-11.078 5.758c-4.164 1.707-8.731 3.13-13.697 4.266-4.97 1.141-10.343 1.707-16.115 1.707v5.973c6.578 0 12.656-.674 18.229-2.027 5.571-1.35 10.708-3.02 15.41-5.012 4.698-1.99 8.929-4.229 12.689-6.719 3.758-2.486 7.05-4.939 9.87-7.358v-54.39zm-56.199 62.921c9.801 0 18.16-1.527 25.078-4.586 6.915-3.057 12.521-6.293 16.819-9.705l-15.106-7.679c-7.12 5.119-15.781 7.679-25.985 7.679h-.806v14.291zm6.647-65.481h40.689v-4.692h-40.689v4.692z"/></svg>
